<svg height="188" viewBox="0 0 303 188" width="303" xmlns="http://www.w3.org/2000/svg"><g fill="none" fill-rule="evenodd" transform="translate(30 1)"><g fill-rule="nonzero"><path d="m228.563836 44.7973211c-28.158605-39.18391121-87.64232-55.0786041-146.142643-37.95964211-30.9273637 9.05028321-60.7470462 27.18386801-75.5249574 62.29633511-26.4171034 62.7673299 29.0489411 82.8136869 65.3177006 89.2027029 17.5376094 3.089382 34.0550608 8.278864 49.1488558 15.344353 27.155102 12.711449 75.221495 23.97514 111.466738-28.973947 26.270596-38.377566 14.490719-73.8094463-4.265694-99.9098019z" fill="#f2f2f2"/><path d="m65.3096932 52.5496823c-.0787702-.6227467-.2380769-1.2326279-.473924-1.8143447-.0608109-.2224251-.2123276-.4090391-.4175214-.514236-.1356545-.0352707-.2778724-.0368632-.4142826-.0046389l-2.1269913.3254605c-.1780261.0081307-.3484858.0743636-.4852977.1885647-.2770305.2913414-.0042383.7604747-.012719 1.1624116-.0095372.4519736-.4111198.8188425-.8465979.9402191-.4445206.0898168-.9030544.0841315-1.3452114-.0166789l-2.9741627-.4621897c.875929-.2796468 1.6555883-.7999309 2.2499831-1.501464.3913918-.4636574.5996169-1.3292937.0339693-1.5488609-.1680656-.0461212-.3433114-.0601922-.5165828-.041478-1.3475034.0104776-2.4078762-1.1145994-3.669364-1.5884454-1.6562198-.5819041-3.4988165-.0326148-4.5660704 1.3611734l1.5843716.0763878c.1490565-.0082262.2968637.0311938.4220275.1125543.3472211.2852813-.0844637.8332442-.0355487 1.2799632.0635528.5803845.8341699.7043041 1.4150731.7629924s1.3178461.5306619 1.0384203 1.0433101c-2.9196852 1.0056697-5.890782-1.9658656-8.9570689-1.6000784-.7760593.0925796-1.5088715.397454-2.2665587.5891583-4.6285056 1.1710716-9.4135591-1.9534819-14.1418346-1.2917565-1.0511516.1791967-2.084253.4516639-3.0870586.814172-.6435261.2112973-1.3147655.4396405-1.7823469.9296762-.4675813.4900358-.6455398 1.3280875-.2025783 1.8404891-1.2209164.1005394-2.4499878-.016291-3.6300957-.345062.6500318.3613345 1.0509922 1.0486707 1.045581 1.7923606-1.9063148.3108577-3.7621532.8767278-5.5175957 1.6823892.3276321.5448281.7103066 1.0545985 1.142011 1.5213017l-2.4133501 1.5504443c.8153444.2054292 1.2368974 1.3172199.7627456 2.0115925.8454192-.3761024 1.3693695-1.3490511 2.2734053-1.5463094.5922643-.1292311 1.194907.113054 1.7567591.3406549.5618522.227601 1.1793836.4482984 1.7610206.2774796s1.010646-.9250015.641057-1.4055085c2.4860652-.7253507 5.0553609-1.126763 7.6442012-1.1942871.1997267-.0250647.402276.0133743.5789338.1098679.337005.2338066.2483368.738809.2301839 1.148573-.0181528.4097639.3012139.9482992.6674418.7636017-.4308688.3736228-.0625323 1.0769927.3508415 1.4698837.4133739.392891.9116078.9350194.6585309 1.4460925-.0660515.1333872-.1780808.2401112-.2416336.3747066-.1875905.3972916.1102559.860464.4615698 1.1242989s.7816365.4482266 1.025676.813571.1332164 1.0048432-.3031664 1.0558605l-1.2403471-1.5748387c-.4237726.4394251-.7142956.9899789-.8378767 1.5878128 1.3152842 1.0752173 1.5131224 3.2637203.4119758 4.5573767-.5627145.6610906-1.3629361 1.0627976-2.0613551 1.5784485s-1.34468 1.2499348-1.3429236 2.1180762c.0030343 1.4998593-.1195168 2.8932899.4425166 4.2838675 1.0363949 2.5640752 2.2329495 5.0604642 3.5825851 7.4743987.3544198.6338752.8124725 1.3286337 1.530455 1.4377762-.9073885-2.2089857-1.724218-4.4523387-2.4504887-6.7300588.4730384.0018513 1.0196877.0394095 1.2969922.4226452.2296252.3173425.180299.7488037.2516494 1.1339668.0907505.3731584.2420787.7289098.447961 1.0530939l4.3330419 7.7184467c.3592021.6398466.7712285 1.3266579 1.457734 1.585778.4389194.1656675.9467284.1344583 1.350719.3729712.3166592.1869536.5299365.5188137.8527528.6949187.9127759.4979387 2.1820845-.4570321 3.0351009.1374799.2439024.1699901.3990671.4400432.6238045.6346659.7878316.6822588 2.080206.2258445 2.9896735.7347921.5861367.3280098.8899062.9840082 1.2025401 1.5784886.7831146 1.4891056 2.0502366 2.9479807 3.7285246 3.0665547.5271828.037246 1.0656802-.062709 1.5809979.054547s1.0225932.566987.9398733 1.088972c-.141813.894884.3003283 1.87477.1815831 2.773003-.2162968 1.636159-2.5370756 2.355164-2.7364215 3.993473-.0436478.358709.0246705.728964-.06074 1.08008-.1046829.430331-.4278661.7807-.5427061 1.208431-.2176295.810585.3631135 1.617287 1.001092 2.162622.6379784.545336 1.3989719 1.01558 1.7477618 1.778965.3686633.806883.1875778 1.747703.3074742 2.626667.2617474 1.918897 1.9191457 3.341431 3.6248348 4.258658.5196888.279459 1.0776865.550012 1.4140504 1.034814.4390269.632768.3952906 1.466945.5418902 2.223025.3590313 1.851667 1.9178172 3.377363 1.9620765 5.262997.031458 1.340245-.713546 2.556109-1.1585803 3.820701-.8442899 2.45175-.5786484 5.149667.7275998 7.389672.3329164.562149.7310936 1.092155.9665997 1.701577.4202625 1.087512.2838981 2.32376.6713911 3.423376.5123003 1.453787 1.9199997 2.654573 1.7852694 4.190084.6390917 1.327158 2.0503251 1.979257 3.4693918 2.37427l2.5432897.707958c.4869762.135557.9958458.272189 1.491716.174036.4958702-.098152.9691069-.509905.9563056-1.015234-1.2471936-.281271-2.5343872-.580372-3.5624923-1.340372s-1.7323754-2.113376-1.3422952-3.330936c.1808768-.564576.5656877-1.216533.1998393-1.68303-.2094734-.267099-.5925131-.336883-.8287824-.580587-.3685284-.380105-.2419162-1.018659.0230215-1.477023.2649377-.458365.6478783-.867981.7547415-1.386511.1104837-.594078-.1599092-1.194245-.678088-1.505092.471581-.178036.9004651-.453225 1.2588267-.807714.3310483-.378051.4839652-.960883.2235504-1.390645.7733308.098077 1.686326.14611 2.1939747-.44546.4053781-.472393.3775342-1.178637.2173575-1.780163-.1601768-.601525-.4309131-1.185778-.4393474-1.808206 1.7839351.084553 3.5717918.02393 5.3459019-.181271-.2565435-.86401-.8395252-1.594126-1.6253288-2.035534.8034963-.135951 1.5354966-1.097893 1.7893474-1.872261.2538507-.774368.1891107-1.617851.0322086-2.417523-.0602599-.205883-.068519-.423498-.0240379-.633356.0904816-.288352.373743-.464311.6358109-.614809l3.9882646-2.290498c.2379933-.119244.453722-.278504.6377655-.470826.4178525-.490816.3559549-1.23173.1420007-1.839779-.2139541-.608049-.5566671-1.179824-.6390791-1.819127-.2464939-1.911976 1.8002319-3.283811 2.4909672-5.083617.2710716-.706309.3263166-1.474054.378774-2.228777.0563415-.8106.0605291-1.752147-.5618669-2.274516-.5966206-.500731-1.5288335-.389035-2.1531314-.854796-.5723719-.427025-.7698453-1.256366-1.3951301-1.601281-.5678531-.31323-1.2798303-.114017-1.9113903-.261336-1.1119931-.259383-1.8117743-1.540987-2.9474342-1.659654-.6407597-.066954-1.3659577.246298-1.8911268-.126872-.4627527-.328817-.4812977-.989722-.569384-1.550527-.3161668-1.785087-1.7108561-3.184268-3.4949184-3.506171-.6606605-.105949-1.3797816-.065712-1.9418172-.428775-.5691078-.367637-.8300497-1.05593-1.2770871-1.565051-.7204854-.8205421-1.8552239-1.112069-2.9182092-1.3619641l-4.3237663-1.0164572c-.7675511-.1804424-1.7569194-.2761217-2.1688087.3962204-.1219281.2559978-.2082463.5274785-.2565519.8068848-.3166243 1.036942-1.2658198 1.7513891-2.3498858 1.7687271-.3623525-.6180956-.9494341-1.072353-1.6386972-1.2679502-.4384365-.1221864-.9077301-.1357762-1.3258798-.3155396-.4602522-.2246494-.8076838-.6289153-.9605775-1.1177126s-.0977553-1.0189854.1524465-1.4658617c.5124693-.9124158.350146-2.0550349-.3961593-2.788626-.7353045-.6601312-1.7989435-.8196311-2.7848874-.7535796-.2582261-.5634441.1735367-1.1991537.6388092-1.6086161s1.0302559-.8120171 1.1315714-1.4234737c.1593839-.9618238-1.0678499-1.6923523-1.9996537-1.4055655-.9318038.2867869-1.5265351 1.1918601-1.9196728 2.0840204-.2255683.511887-.4173359 1.05092-.7731431 1.4825479-.3558073.4316278-.9287928.7406751-1.4707546.6021556-.7672644-.1960986-1.0635926-1.1076684-1.2334035-1.8811763-.2278329-1.0377983-.456992-2.089994-.4092536-3.1514338.0477384-1.0614397.4055678-2.1512948 1.1882628-2.8698508 1.2754382-1.1709219 3.232043-1.0561367 4.9533504-.8693538-.4066727-.4581961-.3061669-1.2303988.1289528-1.6616745.4663292-.4143231 1.1071196-.5717471 1.7123502-.4206758.5186855.107969.9859471.3873451 1.3265567.7931494.489148.5963676.6282452 1.4015781.9979713 2.0785022.369726.676924 1.2010851 1.2542911 1.8815516.8911249.5877435-.3136798.6810295-1.1286742.5347505-1.7786294-.1462791-.6499553-.4569605-1.2819685-.4039738-1.9460703.1011068-1.267183 1.4146767-2.0299372 2.5738242-2.5518126s2.4864443-1.2237293 2.6700854-2.4816029c.0062788-.2462851.052741-.4898912.1375516-.7211981.1285318-.2042991.3071969-.3723155.5189993-.4880663 3.3830051-2.235708 6.8222737-4.4987073 10.6888897-5.7203407.2011593-.0635592.2247755.0070785.4297871-.0427158.2869239-.1658298.0968074-.6245741-.1782853-.809375-.2750926-.1848008-.6427881-.3265211-.7125803-.6504887-.051304-.238146.0890098-.4719841.125461-.7128523.0895644-.5918805-.6184972-1.1383547-1.1683683-.9017269-.310595-.4113369.3039824-.8892904.8009237-1.0261082 1.4922336-.4106811 3.0240399-.6609118 4.5693893-.74644.1783265-.0283539.3610287.0027225.5199524.0884405.2595523.1797908.2263906.5921651.0424437.8487908-.1839468.2566256-.4700779.4177512-.6993046.6348957-.5105219.4973349-.7014478 1.2376635-.4951216 1.9198689.8067455.410367 1.6838167.832812 2.5773265.688243.8935097-.144569 1.6865685-1.1484949 1.2665842-1.9502832-.3911008-.7466509-1.5658919-.9150553-1.7679157-1.7333686-.236535-.9581 1.1197465-1.8102224.8142332-2.7486029-.1338236-.4110417-.5434652-.6529494-.8577966-.9497078-.7598375-.7447438-.9838632-1.8798938-.5639312-2.8574692-1.0389298.1827707-2.1019562-.1498869-2.851367-.892291-.6820184-.6882957-1.2261225-1.7740664-2.194601-1.7432684-.888738.0282551-1.6542354 1.0651108-2.4852529.7487826-.2044444-.0778216-.4200011-.2362145-.6180924-.1434092-.1315328.0854072-.2165367.2265078-.2305571.3827086-.2111835 1.0096739.1521092 2.1600729-.3981836 3.0325516-.5988241.9494274-1.9839278 1.0810559-2.7098871 1.9372036-.394076.4647475-.5467567 1.0909937-.9089804 1.5809683s-1.1310316.8014973-1.5657296.3745042c.4399601-.9044628.1967808-1.9929304-.5862738-2.6241541-.4035863-.2633085-.8386281-.474916-1.2949236-.6298604-.5098705-.2158213-.9949072-.486147-1.4466513-.8062627-.2262963-.1365038-.4101725-.333251-.5310773-.5682517-.0956368-.2942574-.0827532-.6130327.0363183-.8986125.4492427-1.2879813 1.5750356-2.2210867 2.9240078-2.423543.578782-.078741 1.2524061-.0509962 1.6354353-.4919904.202669-.2333384.3090093-.586122.6031867-.6808903.1881689-.0378056.3835181-.013749.5568928.0685797l2.1603175.7603946c.241037.1088168.5063439.1526964.7695817.1272828.270748-.0364768.4675188-.2756256.4511639-.5483298-.0690246-.3587572-.6210528-.5309149-.570822-.8927759.0281346-.1172653.0911786-.2232379.180805-.3039213 1.5785517-1.6801551 3.8251219-2.5673166 6.1257208-2.4190222.2726678.4478218-.1585657.978121-.517382 1.3604143-.3588162.3822932-.6471634 1.0653575-.2132309 1.3596278.177829.0907571.3756373.1353053.5752037.129541.5318691.0719917 1.0487602.2287725 1.5310032.4643764.7465117.3248714 1.4786969.6803266 2.1965557 1.0663654-.0634094-.4733168-.123928-.9719513.0554748-1.4145164.1794029-.4425651.6892825-.7896977 1.1346415-.6173438.4292072.1661039.649329.734421 1.1066015.7864883.6099743.0694548.8506232-.8316775.595832-1.3902233-.2547911-.5585459-.7591843-1.0262348-.8012864-1.6387036-.0284048-.4131946.1288347-.9256467-.2012204-1.1758496-.117452-.0751166-.2507751-.1218658-.3894182-.1365479l-8.241176-1.5165278c-.4893779-.0900556-1.1964442-.0210331-1.2181458.4760896-.0121159.2774901.2357549.5520113.1259713.807142-.1171721.272303-.5020969.2474069-.7824589.3437187-.4350143.1494377-.6533037.6659847-.6115241 1.1240501.076495.4551572.2527704.8877455.5161822 1.266736-.5360409-.2241787-1.3476974-.2653868-1.8837383-.4895634z" fill="#3f3d56"/><path d="m58.7340483 45.5539372c-1.0645531-.3522979-2.2357907-.0015352-2.9314596.8779146-.135696.1786669-.2496567.4249647-.1360587.6184297.1628715.2773594.5778669.1678078.8838271.0685924.4497058-.1606671.9391792-.1723437 1.3960347-.033303.2872971.0986397.5443255.2729714.8328773.3678831.2862329.1197201.6151746.071651.8551798-.1249696.1980343-.2019732.2104602-.5159714.2108103-.7988384.0278182-.1916876-.0323325-.3856945-.1637108-.5280241-.1155024-.0668988-.2452936-.1052883-.3786032-.1119828-.2985568-.0552631-.5684725-.2129734-.7632011-.4459347" fill="#3f3d56"/><path d="m61.7056427 44.7265696c-.2365099-.0128797-.462633.0984418-.5966572.2937373s-.1565695.4463251-.0594888.6623764c.3571637.0974041.7303101.1217343 1.0970981.0715338.3740903-.0580779.6765654-.3354004.7668216-.7030558-.4318382.0785855-.8774647-.0065226-1.2499475-.2387216" fill="#3f3d56"/><path d="m71.6757045 43.3447911c-.9721168.2066774-1.9164181.5274582-2.8132775.9556751.8680234.3336531 1.4160181 1.1954237 1.3500147 2.1230187-.0379437.1734578-.0335499.3535029.0128097.5249034.1033208.2504854.4027234.3444736.6659404.4087665.4729067.1439231.9667224.2069529 1.4606186.1864308.5019217-.0262631.9566598-.3041472 1.2090135-.7388111.0715775-.2030635.1555423-.4015457.2514216-.5943286.6309295-.9608939 2.505255.2009695 3.1826577-.7277453.2386247-.3271536.2167987-.8196079.5278723-1.0788461.1609211-.1129446.3473978-.1841092.5426513-.2070907 1.3622602-.2706515 2.7382977-.4666286 4.1219533-.587054.6556084-.057052 1.5101451-.2924611 1.5156-.9505175-2.4694096-.4849811-5.0298679-.1405293-7.2833185.9798058-.8118948.4066517-1.8857098 1.262055-2.6677681.7229335-.2928195-.2018572-.2783209-.7454068-.6813394-.9723899-.4120391-.2320627-.9574611-.1376781-1.3948496-.0447506z" fill="#3f3d56"/><path d="m79.7514028 44.8549699 1.1591791.2227343c-.431658-.0191169-.8506436.148573-1.1499169.4602292-.2992732.3116562-.4498475.7370927-.413255 1.1676215 1.0855241.3626349 2.268992.0097501 3.4124706.0579545s2.4739235.8650101 2.2787252 1.9927354c-.0590214.340986-.2560036.6817443-.1535705 1.0122907.0717953.231681.2761195.3960729.3914487.6094493.2403263.4446357.0482487 1.0070339-.2552108 1.4112228-.3034594.4041888-.7113488.7266867-.9777161 1.1562271-.6624908 1.0683306-.2860953 2.4494702.1085479 3.6429876.1141092.4509647.3248198.8717592.6175568 1.233277.5846797.621658 1.5374935.6757243 2.3908135.6881776.621076.0090669 1.3325451-.0216193 1.7253054-.5028222.5127663-.6282347.1542115-1.6084137.4918069-2.3457319.3066034-.6696347 1.0877634-.956915 1.7955066-1.1606636 1.2965936-.3732706 2.6179505-.6906109 3.8437441-1.2544303 1.5221261-.7001185 2.9446552-1.7911776 4.6176486-1.8812987.4693551-.0252819.9503401.0301107 1.4024471-.0984858.452106-.1285964.881575-.5194758.847348-.9882633-.029246-.4005452-.368127-.694672-.632924-.9966218-.264796-.3019497-.472745-.7662607-.229381-1.0857286l4.385135-.8190639c-.310837-.8471145-.552988-1.9627808.161284-2.5141785.257713-.1989474.602771-.2784643.822197-.5189804.373986-.4099305.185925-1.1160753-.245783-1.4646987-.431708-.3486233-1.015428-.429553-1.56842-.4754864-1.922783-.1596876-3.856607-.0541675-5.7831115.0514326-3.7659078.2064251-7.5318162.4128495-11.2977254.6192732-.7581089.0415539-1.6333941-.0219293-2.3287009.2367079-.5886269.2189621-1.0071499.6208905-1.6803692.7621047-1.2427931.2606973-2.6104693.0842866-3.7350802.7820287z" fill="#3f3d56"/><path d="m100.51773 54.0174701c-.118121-.0186907-.238909.0087033-.33741.0765227-.065131.0717133-.103873.1634847-.109836.2601765-.0748354.4267376.014306.8659935.249572 1.2297999.244068.3634566.666161.565823 1.10237.5285154.521951-.0665576.906606-.5118512 1.386459-.729139.739573-.3345928 3.880404-.8561962 1.707745-2.0299941-.748744-.4045178-1.232562-.0474243-1.822694.2189789-.671435.3434909-1.423824.497391-2.176206.4451397z" fill="#3f3d56"/><path d="m119.547694 44.1923252c-.253701.1036475-.465938.2883899-.60357.5253799-.131703.2499312-.04426.5592336.198806.7032139.094759.0343578.195211.050292.295951.0469456l1.031552.030817c.438226.0130923.985619.1064226 1.103378.5287305.087441.3135764-.108268.7165254.127869.9406134.101342.0784777.223198.1260055.350913.1368663.339805.0872894.694655.0987413 1.039382.0335435.750558-.2013195.356178-.6594102.59257-1.0673059.361692-.6241082.299078-.2463062.936392-.6039965.47066-.2641575 1.078852-.7433445.686012-1.4166102-.683142-1.1707932-4.751185-.3611673-5.759255.1418025z" fill="#3f3d56"/><path d="m139.907979 43.6037067-.598993.0799323c-1.350744.1802505-2.709142.3621605-4.010092.7677852.563141.2226529 1.153965.3676293 1.756206.4309384.331521.0162505.660834.0630622.983751.1398394.574611.1710571 1.153608.6127808 1.708751.3865041.344204-.1403012.456526-.4986936.741654-.6886331.196883-.1311541.943626-.343434 1.027105-.4758112.674873-1.070184-1.089623-.70978-1.608382-.6405551z" fill="#3f3d56"/><path d="m142.538225 46.326104c-.800113.4473908-1.542457.9910339-2.210473 1.6188027-.281435.2645603-.568896.5936011-.54337.9790172.033919.512256.57959.8093898 1.052341 1.0095453l1.914857.8107203c.232297-.3274131.019686-.779374-.220394-1.1011255-.240079-.3217515-.525375-.69401-.419305-1.081193.121046-.441844.659777-.5924098 1.111534-.6685277.736059-.1240208 2.721634-.1140746 2.483055-1.3003005-.281114-1.3977342-2.429375-.6799331-3.168245-.2669388z" fill="#3f3d56"/><path d="m142.153165 125.424955c-.182294.527752-.199588 1.14945.115743 1.610227.353835.517042 1.061969.709776 1.674619.578657.610092-.162321 1.153887-.511952 1.554784-.999643.366638-.408587.668259-.871131.894285-1.37141.315458-.77961.537943-1.593679.662852-2.425365l.594537-3.121553c.132856-.697648.127713-2.836516-1.154538-2.139649-.350291.190371-1.161334 1.693455-1.528431 2.119687-.661628.768207-.749166 1.513594-1.097471 2.444251-.436271 1.165705-1.313083 2.137231-1.71638 3.304798z" fill="#3f3d56"/><path d="m209.877217 141.399049c-.419589-.16374-.826797-.357591-1.218438-.580039-.392725 1.079667-.601513 2.217576-.617669 3.366337l2.871027-1.62462c.431894-.244386.921405-.58397.912118-1.080129.007936-.124812-.052947-.243988-.158728-.310706-.063801-.025607-.133271-.033758-.201266-.023617-.425724.03548-.81389.244959-1.215494.390629-.401603.14567-.871203.222667-1.239678.006488" fill="#3f3d56"/><path d="m225.022482 142.363565c-.315106.085776-.622961.196257-.920704.330416-.658851.335225-1.107052.971947-1.699943 1.413475-.56736.422514-1.25034.654493-1.920818.880044-.197231.17434-.106602.52546.107492.678613.230187.130949.494192.19029.758275.170439.696557.015376 1.430405.022083 2.040523-.31435.343777-.222998.665468-.478322.960691-.762495.71335-.595199 1.57001-.987909 2.418008-1.367419.308645-.116537.59404-.287171.842786-.503893.532867-.524982.570337-1.334882-.198022-1.513559-.620827-.144386-1.797149.797491-2.388288.988729z" fill="#3f3d56"/><path d="m231.714332 137.992375c.069906-.731932-.200254-1.455415-.732787-1.962387-.007853.72275-.029801 1.492718-.436294 2.090374-.289632.425833-.743746.713495-1.061063 1.11912s-.45817 1.048577-.085965 1.404505c.237909.181036.527689.280843.826619.284705.740909.087216 1.598491.135825 2.118142-.399448.283632-.29216.421597-.724874.767526-.939671.128867-.054112.243943-.136462.336741-.240976.142836-.227061-.084118-.526303-.339588-.608117-.25547-.081813-.536994-.043352-.793744-.121054-.25675-.077701-.492302-.366407-.360568-.60008" fill="#3f3d56"/><path d="m219.820861 111.493517c-.388706.094538-.791264.118274-1.188386.070069-.659595-.121265-1.172965-.618369-1.705484-1.026039-1.265891-.963856-2.804784-1.501533-4.395484-1.535748-1.447022-.027325-2.907563.364786-4.328748.091211.092851.51645.534782.9038 1.006306 1.134033.471525.230232.99193.346093 1.465717.571638.758781.364794 1.360619.990908 1.695138 1.763515.152596.356189.248602.743808.479754 1.054821.47245.635701 1.367965.775291 2.158293.723304 1.030408-.06778 2.106606-.364132 3.065227.019766.733343.29368 1.258209.935542 1.870528 1.434632s1.474765.869508 2.177873.509397c-1.498982-.485301-2.508278-1.888904-2.491161-3.464394.689603.063413 2.67584.038871 2.568852-1.132871-.090652-.993035-1.786288-.320515-2.378425-.213334z" fill="#3f3d56"/><path d="m210.79964 119.573017c.122442-.671555.79215-1.264589.583539-1.914557-.14427-.44949-.665439-.671408-1.137385-.682491s-.93558.129499-1.407469.142737c-.307153-.016306-.615056-.011933-.921622.01309-.936731.153979-1.514111 1.135812-2.39689 1.484918-.536777.212273-1.139799.171694-1.698058.318441-1.267242.333112-2.069069 1.530592-2.954918 2.496063-1.431312 1.553002-3.295973 2.640438-5.352449 3.121452-.720525.166838-1.495083.273577-2.067801.741536-.758419.61969-.945109 1.682049-1.113845 2.6468-.466188 2.664395-1.178642 5.279775-2.128197 7.812496l3.009045.384184c.572089.073044 1.164881.144521 1.716158-.024932.400529-.151094.779914-.353181 1.12878-.601265 1.340135-.832031 2.840024-1.373438 4.402615-1.589188.787979-.108181 1.614123-.128004 2.353588.164892.739465.292895 1.373855.957113 1.435828 1.750056.651587-.202713 1.361857-.029972 1.847572.44934.471192.480096.779732 1.096033.882081 1.760894.079262.411668.158566.904927.540568 1.077627.311649.140896.669152-.010855 1.010079-.038136 1.156874-.092567 2.116857 1.25637 3.253947 1.024082 1.219508-.249125 1.518906-2.075506 2.708622-2.441352.683298-.210119 1.641746.045385 1.968944-.590211.2884-.56022-.286993-1.206706-.227656-1.834003.073063-.772409.984169-1.100261 1.686548-1.429833 2.421502-1.136223 3.570587-4.395351 2.397185-6.79905-.695237-1.424186-2.063198-2.545276-2.315834-4.109833-.194374-1.203742.280145-2.607433-.48733-3.554933-.39042-.481998-1.051454-.748051-1.283774-1.323181-.146237-.362023-.08746-.772772-.166156-1.1552-.078697-.382428-.412343-.782455-.789989-.68333-1.096232.287738-1.446036 3.674174-2.032953 4.496985-.892172 1.250727-2.72373.426866-2.442773-1.114098z" fill="#3f3d56"/><path d="m190.537322 112.773029c-.374618-.105041-.783679-.208518-1.142622-.058408-.358943.150111-.568564.677114-.280478.938611 2.253757-.087796 4.521313-.174979 6.755914.131088 2.574621.352638 5.122622 1.226144 7.708541.969162-1.477148-.435786-2.978676-.784212-4.496787-1.043468l-2.531549-.483596c-.67912-.142242-1.365322-.248273-2.055702-.317644-1.444235-.119277-2.537337.262413-3.957317-.135745z" fill="#3f3d56"/><path d="m192.793587 104.923618c-.187101-.015622-.418829-.029082-.515624.131787-.092478.153701.013375.356773-.036354.529129-.067938.235459-.376307.295611-.619267.263554-.242959-.032057-.505723-.10883-.720976.008317-.224238.153174-.320491.435952-.236267.694121.088007.249551.230339.476441.416715.664283.318338.401144.681058.764965 1.081234 1.084519.774598.57177 1.824008.847308 2.311878 1.677313.068824.160869.174608.303243.308767.415567.234207.148354.539653.035492.791815-.079728l.883919-.403881c.159222-.057354.301362-.154024.413214-.281028.201944-.274007.077906-.663593-.091593-.958775-.169499-.295181-.386466-.600667-.350091-.939099.064854-.603417.840705-.834229 1.159723-1.35051.32156-.5204.112224-1.190916.149288-1.801578.043372-.714123.492098-1.643032-.229863-2.176593-.613576-.45346-1.200033-.034465-1.640557.466164-.928976 1.055721-1.368237 2.199046-3.075961 2.056438z" fill="#3f3d56"/><path d="m198.159008 94.2535433c.301775.5778057.930884.9226188 1.259957 1.4853249.356686.6099216.316048 1.3979661.703003 1.9891487.397003.6065394 1.195944.9285586 1.418592 1.6184337.243074.7531724-.30844 1.6686034.131186 2.3266934.165765.217487.415114.355519.687423.380538s.542636-.065267.745255-.248907c.385441-.419677.3662-1.070073-.043376-1.46623-.260292-.237323-.634052-.3398788-.85138-.6170843-.113183-.1599749-.18858-.3435526-.22051-.5368991-.118468-.5577025-.099492-1.1358529.055294-1.6845864.058154-.1392647.072921-.2928395.042367-.4406336-.097838-.2843915-.482921-.3045686-.753187-.4365008-.613846-.299643-.598949-1.1659498-.491702-1.840565-.071403.4491292-1.671241-.3147573-1.838768-.5691626-.3328-.5053883-.151673-1.4802832-.217556-2.0387637-.718484.3462174-.995563 1.3727242-.626598 2.0791938z" fill="#3f3d56"/><path d="m182.041636 103.143734c-.295285-.330561-.740049-.676374-1.135928-.477015-.302032.152094-.385115.569987-.266736.886756.144211.30769.366251.5724.644156.767947.824996.680402 1.713373 1.294492 2.433099 2.085419 1.287995 1.415429 1.970296 3.325318 3.37105 4.629258.281561.302308.654385.50408 1.061463.574464.408098.037965.866372-.22326.913282-.630426.03864-.3354-.195178-.635604-.423677-.884149-.544125-.591862-1.139816-1.136649-1.653539-1.755081-.237257-.23755-.386358-.548945-.422658-.882716-.002606-.332988.301047-.681512.623669-.59905-.392372-.100291-.683365-.75398-1.259248-.87686-.481273-.102688-.5977.195255-1.170462-.050395-1.092403-.468526-1.949463-1.931747-2.714471-2.788152z" fill="#3f3d56"/><path d="m207.709912 70.9568774c-.31336-.0931333-.621441-.2031852-.922887-.3296713-.811091-.243466-1.88425.3527076-1.776137 1.1926171.071834.5580524.591198.934294.878016 1.418354.425353.7178455.311957 1.6283272.088437 2.4322346-.054877.248914-.15924.4842536-.306886.6920279-.206423.2193592-.453193.396874-.726805.5228306-1.095339.6142217-2.061294 1.4348527-2.844464 2.4165257-.085146.090662-.14446.202472-.171778.3238115-.038682.2835818.24637.4901581.407529.7266783.35799.5253989.099241 1.2323851.134631 1.8671669-.011059.1824908.073091.3577122.222437.4631681.21577.1096044.471451-.0765712.588401-.2884547.388111-.7031465.095745-1.8318144.823826-2.1708394.137724-.0641306.304691-.0911669.39657-.2121513.145769-.1919257.005132-.4761043.079005-.7055081.110911-.3444335.581997-.3598958.943525-.3446191.622768.0260426 1.245302-.0568362 1.839566-.244904.233116-.0554304.444847-.178038.60896-.3526317.217648-.2716283.198359-.6578498.154869-1.0031901-.217832-1.7216766-.763191-3.3857466-1.60664-4.9023921.639564.0816993 1.335383.1524508 1.887278-.1808578.309039-.1866416.67963-.7447847.526356-1.1246805-.242388-.6007598-.680259-.0950868-1.223809-.1955146z" fill="#3f3d56"/><path d="m125.717706 80.4258144c.076542.4105019.15178.8427412.01725 1.2380529s-.557732.7256156-.957353.6044899c-.31014-.094003-.48929-.4058441-.709515-.6435915-1.224697-1.3221434-3.987805-.5566671-4.74437-2.1923786-.308771-.6675788-.098933-1.467366-.309541-2.1720792-.273262-.8377259-1.078407-1.3846908-1.95788-1.3300611-.39.0563262-.769608.1696426-1.126667.3363197-2.39203.9579911-4.903278 1.5860867-7.464653 1.8670066-.486775.0296579-.968275.1172678-1.434299.2609736-1.051721.3812874-1.77033 1.3563278-2.281734 2.3512985-.511404.9949708-.888949 2.0721322-1.574588 2.9561006-.72058.9290225-1.730326 1.5795745-2.672225 2.2832397-.362843.2338455-.6649752.5505047-.8815355.9239219-.2041977.4192167-.1926785.9068297-.1768283 1.3728655l.1925035 5.6602269c.0247612.7280447.0558523 1.4821135.3817003 2.1336418.406899.8135837 1.210713 1.3464448 1.768348 2.0651506.569076.7385948.865515 1.6511106.839155 2.5831378-.011869.374709-.049103.817906.242726 1.053239.177526.115101.385256.174844.596806.171639l7.656629.626656c1.346856.110233 2.839485.291478 3.718823 1.317608.415006.484285.748386 1.180716 1.38405 1.23268.272659.022286.537964-.08964.810678-.111239.688042-.054492 1.292479.467723 1.67394 1.042925.577344.876707.839413 1.923677.743174 2.96899-.062547.656148-.265984 1.29404-.309843 1.951709-.166886 2.502423 1.954482 4.676545 1.995601 7.184191.024188 1.475023-.67603 2.853193-1.358704 4.160952 1.101805 1.669139.199591 3.891799.638244 5.843107.416162 1.851257 1.959722 3.300534 2.344351 5.158598.17608.850619.186266 1.897393.936344 2.335505.329129.160421.693991.233476 1.059512.212143 2.204765.026116 4.384393-.470101 6.360569-1.448056.927488-.460254 1.888706-1.147341 2.050686-2.17.130627-.824708-.287599-1.747186.138028-2.46555.501633-.846663 1.786707-.779545 2.524781-1.430495 1.197384-1.056031.263683-3.070036.748826-4.591076.436086-1.36723 1.937234-2.093587 2.681341-3.320693.292833-.527734.502973-1.097268.623088-1.688729.340884-1.413615.55307-2.855192.63396-4.307075.019829-.882135.084869-1.762674.194865-2.638149.802265-4.984226 5.729715-8.321751 7.329507-13.1099317.152782-.4572746.224531-1.0663591-.182273-1.3251059-.241293-.115119-.514837-.1437488-.774737-.0810858l-3.529533.4449816c-.438396.0552703-.903089.1069286-1.305692-.0751606s-.691147-.6914059-.477595-1.0782326c.599471-1.0858614-.63366-2.4580374-1.181495-3.5708402-1.475398-2.996406-3.232347-5.8457468-5.247131-8.5095592-.128974-.1370335-.20974-.3123905-.230047-.4994737l1.001722.0333536c-.338143-1.2133635-.896177-2.541141-2.074985-2.9849945-.664253-.2501101-1.399863-.1636264-2.108587-.1249001-2.029971.110897-4.206259-.1955904-6.215397-.5062465z" fill="#3f3d56"/><path d="m131.934756 53.0825477c.531195.5641041 1.126445 1.1621923 1.895023 1.2605136 1.357509.173678 2.333549-1.2301162 2.954975-2.4494618.047833.6463725.601491 1.1372258 1.248937 1.1072636.335088-.0563789.654904-.1814137.939376-.3672569 2.689646-1.4698532 5.70226-2.2486385 8.767279-2.2664132-.060971-.4808903.251109-.9301602.723035-1.0408789.623176-.1235464 1.184526.4152357 1.485144.9749139.300617.5596781.488064 1.2083914.965678 1.6273171.477614.4189258 1.40231.4006759 1.590963-.2059731.181115-.5824109-.425629-1.0790844-.929714-1.4224532-.504086-.3433687-1.03541-.9788927-.695948-1.4856179 2.575283-.5700588 5.166541-1.1422767 7.801729-1.2555838.448648.0156181.895699-.0613938 1.31326-.2262303.401874-.1972099.721293-.6448694.613226-1.0792827-1.176233.2765-2.402837-.1861635-3.103459-1.170595 3.656502-.3017388 7.54558-.5589296 10.786081 1.1616061.388861.8347898-1.593038 1.529329-1.06277 2.2822656.169119.2401386.508003.2683009.801663.2737516 2.251862.041809 4.516721.0828063 6.743164-.2571697.813637-.1242401 1.635459-.2996303 2.452338-.1988799 1.360615.1678035 2.524344 1.0756454 3.862932 1.3716362.544819.1204742 1.155705.1245543 1.614968-.1923306.459263-.3168848.656675-1.038435.280322-1.4503792 1.260332-1.2352359 3.352095-.9290901 5.014782-.3377199 1.662686.5913703 3.237839 1.5450528 4.997632 1.6768711 1.261931.0945259 2.541397-.2449145 3.788337-.0291617.783581.1355821 1.512846.4841759 2.278685.6983431 1.448457.4050596 2.980679.3195543 4.484578.3390482 3.837181.0516952 7.632437.8058374 11.197875 2.2250912.463814.1510074.888782.402086 1.244841.7354753.331752.3552654.500945.9073252.277973 1.3392525l-3.684276-.5383224c.34713.6833531 1.245178.7998041 1.974481 1.0355463.729304.2357422 1.485479 1.0411341 1.047188 1.669917-.790206-.2516051-1.506293.5384425-1.905463 1.2653507-.39917.7269081-.885607 1.5974659-1.713717 1.6417462-.74155.0396541-1.638387-.5917666-2.121742-.0279957.667775.8424185 1.239603 1.7566227 1.704898 2.725691.477534.9948568.817657 2.24841.172221 3.1435012-.101544.1597889-.255565.2792272-.435603.3377957-.527125.1334441-.869619-.5114147-1.247651-.9022646-.476355-.4925302-1.19675-.6320343-1.841841-.8630238-.64509-.2309894-1.324637-.6853858-1.375111-1.3687242-.031403-.4251566.193069-.8203776.35841-1.2133213.277901-.6623285.399439-1.3797882.355181-2.0966909-.036194-.5767514-.197917-1.1766993-.612123-1.5796757-.414207-.4029764-1.129337-.5308137-1.574002-.1617287-.207485.1722147-.373766.4476848-.64321.4579852-.476083.018214-.841617-.8118062-1.224644-.5284731.044941.3018951-.017656.6099819-.176847.8704017-1.142988.9940683-2.898886.573521-4.372416.9246789-.700686.2005282-1.371538.4934979-1.994859.8711798-.233174.0997053-.431588.2662494-.5702.4786135-.183934.3574393.01886.8152242.343068 1.0528873.343817.2108677.730176.3427419 1.13117.3860971 1.796411.3402249 3.619026.8669057 5.037294 2.0207543 1.418267 1.1538487 2.348333 3.0612263 1.899529 4.8336333l-3.542606-3.3850463c.134553 1.4213075.210911 2.8465299.229073 4.2756673.022907.2790441-.015418.5597241-.112295.8224123-.252552.5578163-.937044.745527-1.536857.8686664-.337441.0641096-.631428.2693065-.807965.5639433s-.218812.650652-.116183.9784379c.213111.6946341.744477 1.2362037 1.231021 1.7758376s.965343 1.1529504 1.029037 1.876742-.482373 1.5396189-1.207215 1.4892954c-.549485-.0381528-.957151-.5300526-1.191524-1.0285079-.234374-.4984553-.373832-1.0537223-.725987-1.4772532-1.065878-1.2819284-3.459981-.7326962-4.414843-2.0993329-.494876.56136-.663838 1.3389181-.446554 2.0550294.444218-.278089 1.052345-.019709 1.386099.3843596.333753.4040687.491204.9221128.753308 1.3759462.353681.612397.916554 1.1552951.965922 1.8607694-.013088.2667636-.008591.5340997.013462.8002722.087694.4274529.44899.7343789.69949 1.0916685.582879.831357.554078 1.9734418.178386 2.9167163-.375691.9432745-1.050648 1.7314709-1.719182 2.4956462-1.167681 1.3347359-2.359195 2.6616468-3.743521 3.7700743-.395008.3162881-.816571.6272879-1.062589 1.0694756-.246017.4421877-.258633 1.0628631.119418 1.3992292-.270504.0135476-.755623.1465932-1.026127.1601409-.095103-1.0851456-.115773-2.1755307-.061864-3.263501-1.067498-.5125723-2.216887.8601203-2.079135 2.036263s.988434 2.1199738 1.594092 3.1375444c.442907.7441206.772066 1.6117854.624199 2.4650274-.147866.853242-.909507 1.6403651-1.772192 1.5651117-1.372199-.119696-1.946171-2.0896228-3.305-2.315073-.119845-.0281369-.245643-.0156476-.357616.0355044-.20171.1107008-.236771.3806-.248096.6104086-.055593 1.1279151-.103726 2.3006651.336572 3.340578.644127 1.521331 2.308153 2.79907 1.959089 4.413848-1.880405-.874086-2.858081-2.982838-3.301979-5.008402-.443897-2.0255639-.517879-4.1520196-1.313597-6.0668996-.604216.7744378-1.874212.1342327-2.426269-.6782103-.523379-.7702396-.845618-1.6612401-1.353401-2.4418497-.507784-.7806097-1.285665-1.4795959-2.215915-1.5225183-.975319-.0450099-1.821187.6242916-2.565061 1.2566886-.611686.5200199-1.239704 1.0605036-1.597255 1.7793464-.520309 1.0460449-.384204 2.2792186-.409277 3.4472517-.027112 1.2627508-.294725 2.5950576-1.155364 3.5194877-.860639.9244305-2.44919 1.2464175-3.398474.4132726-.495592-.4349616-.735549-1.0848198-.949286-1.7086096-1.030279-3.0069118-1.888324-6.0701058-2.569961-9.1746772-.159509.7085887-.781721 1.6218897-1.376126 1.2044905-.133377-.1122068-.241433-.2514312-.317034-.4084797-1.108761-1.8792091-3.162068-3.0063819-5.236678-3.6822264-2.074609-.6758445-4.257362-.9910973-6.308965-1.7338662-1.149703-.4164075-2.247814-.963398-3.272775-1.6302334-.532295.782055-.592697 1.7930745-.1573 2.6329426.455092.8058094 1.484922 1.2720413 2.366468.9903804.455549-.1455537.840259-.4617996 1.292273-.6179933.452013-.1561936 1.058707-.0794937 1.256362.3559971.189193.4168361-.096772.9210922.045083 1.3563194.216055.6628745 1.215812.7139445 1.565405 1.3171566.260111.4488065.04609 1.0447861-.3253 1.4069402-.37139.3621542-.866904.5607831-1.320258.8128837-1.470995.8179802-2.517049 2.2143353-3.80261 3.3007281-1.285562 1.0863928-3.099341 1.8795675-4.631435 1.1827067.365208-1.8492628-1.837634-3.2069402-2.242881-5.0478425-.133387-.6059174-.06424-1.2495658-.254671-1.840042-.275711-.8549163-1.034191-1.442723-1.656416-2.090595-1.524693-1.6047721-2.336276-3.7575266-2.250468-5.9694534.033624-.7608184.173402-1.534029.000074-2.2756045s-.787304-1.4593386-1.548125-1.4257299c-1.737702.0767526-3.926833.206009-4.838529-1.2753074-.325387-.5286883-.466987-1.3030122.003462-1.7080635.331873-.2857368.821754-.2588206 1.257583-.2159467l3.915292.3851546c.91573.090083 1.905613.1644255 2.69142-.3143061.785808-.4787316 1.126305-1.749495.398677-2.312722-.53165-.4115351-1.484175-.3892199-1.63872-1.0435399-.12871-.5449455.474468-1.1632529.148696-1.6186699-.233588-.3265443-.758742-.2359509-1.076968.0088434-.318226.2447944-.549114.6027862-.905261.788131-.624755.3251442-1.371248.0157005-2.043411-.1946058s-1.57327-.228166-1.899295.3961256c-.364617.6981934.323413 1.6130695-.038446 2.3126883-.478418.9249846-2.098589.3984155-2.770486 1.1940488-.770994.9129825.52464 2.2743689.264628 3.4407151-.675264.3344288-1.476591.2894083-2.110146-.1185533-.624122-.4245056-.964416-1.1576903-.885742-1.9083855.064361-.5246798.337904-1.0602653.154621-1.556087-.148187-.4008804-.550687-.6395346-.924765-.8462563l-3.804784-2.1024895c-.353248.6552942.093336 1.4676824.651857 1.959871s1.258091.8628867 1.624993 1.5106342c.481786.9315881.154797 2.0772392-.746132 2.6141762-.110066.0759736-.247855.1000091-.377144.065788-.122641-.0720667-.210878-.1907201-.244596-.3289144-.671319-1.7179464-1.67923-3.4117705-3.290638-4.309198s-3.926836-.7129134-4.983527.7988489c-.250987.3590735-.419438.7683693-.638082 1.1480015-1.16162 2.0169336-3.65194 2.9720267-5.978625 2.9096399-.227611.0125883-.454033-.0406174-.652216-.1532605-.376026-.2597042-.359092-.8107878-.301528-1.2641425l.244229-1.9239343c.049044-.3863396.12011-.8133708.425889-1.0545384.431031-.3399549 1.052817-.1254188 1.601731-.1333238.851886-.0398807 1.588004-.6079854 1.842484-1.4219513.225988-.8177668-.019158-1.6934432-.63689-2.2750099-.251587-.236301-.589271-.533129-.456387-.8516817.107335-.1783719.288104-.3001.493746-.3324842.985993-.2863293 2.027829-.3613782 2.997383-.6992245s1.909811-1.0290687 2.139421-2.0297896c.070366-.3066751.102402-.6781723.37787-.8302184.13822-.0583582.286654-.088685.436688-.0892206 1.089543-.1550064 1.880452-1.1162352 1.822716-2.2152336.464657-.3246782 1.115654-.0858448 1.565175.259487s.846387.8015753 1.393355.9504374c1.01932.2774269 2.004381-.6250781 3.06077-.6292615.444244-.0017586.904125.1553164 1.322062.0047042.423684-.1526849.6767-.5744425 1.001876-.8860285.325176-.3115859.895741-.5016329 1.196003-.1659753l-.255689-1.8939333c1.041783.2631809 2.146472.0634605 3.030156-.5478321l-3.304578-1.1165625c-.115063-.0287269-.221226-.08549-.309016-.1652247-.24025-.2587026-.001619-.6618434.193744-.9559218.467357-.7035134.545812-1.8623699-.222745-2.2126168-.524594-.2390674-1.126741.0478987-1.630259.3286508l-2.411927 1.3448465c-.076647.4584639.483999.7182946.831416 1.0271099.430239.3824362.58116.9899953.379886 1.5293022-.201273.5393069-.713342.8994333-1.28894.9064833.321728.4182745.435867.9601218.310209 1.4726375l-1.622805.1167124c-.182129.0366427-.371358-.0002907-.526341-.1027304-.173564-.1541483-.150026-.424271-.190254-.6528925-.097092-.5518005-.637405-.9385449-1.188834-1.0377097-.551429-.0991647-1.115554.027943-1.661592.1534504-.231859.0834353-.486477.0775593-.71424-.0164829-.130604-.0848434-.229846-.2101053-.282568-.3566528-.23939-.5804414-.015628-1.2627002.368851-1.7590807.38448-.4963805.910809-.8592494 1.383508-1.2724883 1.130412-.9918419 1.960943-2.2800296 2.397772-3.7190444.893358-.3743017 1.818235-.8828656 2.711582-1.2571757 1.377308-.6973282 2.921846-.9965849 4.459929-.8641181l3.025418.0577879c.895728.0171091 1.815685.0390321 2.643945.3805157.828259.3414836 1.55603 1.0800649 1.613213 1.9741313.035062.2057576-.038232.4150771-.19399.5540187-.116969.063834-.249455.0936965-.382498.086216-.835374.0293578-1.191548.2375049-2.026903.2668523z" fill="#3f3d56"/><path d="m107.820218 62.5643217c.240966-.2281004.334151-.571795.241405-.8903743-.586676-.2263961-1.250961-.1009598-1.714684.3237821-.179232.1812905-.333696.3854931-.459373.6072943-.397551.6486015-.749181 1.4233408-.518786 2.1483596.037933.1597261.138616.2974346.279312.3820276.103257.0414445.214582.0588823.325566.0509962.437954-.0005692.875476-.0274982 1.310194-.0806408.266966-.032641.577042-.1080314.680216-.3564082.135622-.3264937-.192637-.69599-.096943-1.036335.062957-.152197.158363-.2888253.279561-.4003533.121906-.1138596.183003-.2785249.16487-.4443447-.038618-.1596939-.283143-.2502894-.371166-.1115443" fill="#3f3d56"/><path d="m110.091204 59.6200293c-.389059-.0893316-.790097-.1145157-1.187276-.0745576-.087841-.0026161-.174903.0171692-.252986.0574928-.075657.0557946-.130524.1352487-.155901.2257643-.173951.558346.110291 1.156643.653009 1.3745102.14264.032794.279271.0877005.404939.1627281.335797.260535.121729.7930693.185297 1.2133024.07138.471885.52815.867981.444406 1.3378292-.065976.3701604-.461328.6632646-.39768 1.0338404.066667.3881214.559174.5047474.951751.535828.227518.0398404.461703.0130006.674307-.0772819.213099-.1457136.36466-.3652062.425427-.6161061.160721-.478393.228256-.9831581.198951-1.4869759-.00173-.2291457-.059282-.454417-.167674-.6563126-.118218-.1599452-.249262-.3100002-.391833-.4486779-.752142-.8748972.039817-2.1799147-1.384737-2.5813834z" fill="#3f3d56"/></g><path d="m208.996983 128.156607s-57.606906-33.0674094-82.407463-26.802005c0 0-52.5597737 5.656267-58.6511393 18.100054 0 0-16.7077432-52.211697-22.7991025-53.9520872" opacity=".8" stroke="#6c63ff" stroke-width="2"/><path d="m67.9383807 119.454656c9.6591653-25.7577693 96.6786593-54.3001644 96.6786593-54.3001644-12.356766 3.1327011-38.02752 36.2001104-38.02752 36.2001104s-54.3001681-39.5068521-81.450246-35.8520332c0 0 119.564785 3.9158769 163.857703 62.6540382" opacity=".8" stroke="#6c63ff" stroke-width="2"/><circle cx="45.139274" cy="65.502569" fill="#6c63ff" fill-rule="nonzero" r="2.523566"/><circle cx="67.938383" cy="119.454656" fill="#6c63ff" fill-rule="nonzero" r="2.523566"/><circle cx="164.61704" cy="65.154492" fill="#6c63ff" fill-rule="nonzero" r="2.523566"/><circle cx="208.996983" cy="128.156605" fill="#6c63ff" fill-rule="nonzero" r="2.523566"/><circle cx="126.589523" cy="101.354602" fill="#6c63ff" fill-rule="nonzero" r="2.523566"/></g></svg>